<svg width="48" height="48" viewBox="0 0 48 48" fill="none" xmlns="http://www.w3.org/2000/svg">
<rect width="48" height="48" rx="24" fill="#FDE8E8"/>
<path fill-rule="evenodd" clip-rule="evenodd" d="M19.4344 19.4344C19.5844 19.2844 19.7879 19.2002 20 19.2002C20.2122 19.2002 20.4156 19.2844 20.5656 19.4344L24 22.8688L27.4344 19.4344C27.5082 19.358 27.5965 19.297 27.6941 19.2551C27.7917 19.2132 27.8967 19.1911 28.0029 19.1902C28.1091 19.1893 28.2145 19.2095 28.3128 19.2497C28.4111 19.29 28.5004 19.3494 28.5755 19.4245C28.6507 19.4996 28.7101 19.5889 28.7503 19.6872C28.7905 19.7856 28.8107 19.8909 28.8098 19.9971C28.8089 20.1033 28.7868 20.2083 28.7449 20.3059C28.703 20.4035 28.642 20.4918 28.5656 20.5656L25.1312 24L28.5656 27.4344C28.7114 27.5853 28.792 27.7874 28.7902 27.9971C28.7883 28.2069 28.7042 28.4075 28.5559 28.5559C28.4076 28.7042 28.2069 28.7883 27.9971 28.7901C27.7874 28.792 27.5853 28.7113 27.4344 28.5656L24 25.1312L20.5656 28.5656C20.4147 28.7113 20.2127 28.792 20.0029 28.7901C19.7931 28.7883 19.5925 28.7042 19.4442 28.5559C19.2958 28.4075 19.2117 28.2069 19.2099 27.9971C19.2081 27.7874 19.2887 27.5853 19.4344 27.4344L22.8688 24L19.4344 20.5656C19.2844 20.4156 19.2002 20.2121 19.2002 20C19.2002 19.7879 19.2844 19.5844 19.4344 19.4344Z" fill="#F98080"/>
</svg>
