<svg width="48" height="48" viewBox="0 0 48 48" fill="none" xmlns="http://www.w3.org/2000/svg">
<rect width="48" height="48" rx="24" fill="#DEF7EC"/>
<path d="M18.6666 20.6667V27.3333C18.6666 28.8067 21.0546 30 24 30C26.9453 30 29.3333 28.8067 29.3333 27.3333V20.6667M18.6666 20.6667C18.6666 22.14 21.0546 23.3333 24 23.3333C26.9453 23.3333 29.3333 22.14 29.3333 20.6667M18.6666 20.6667C18.6666 19.1933 21.0546 18 24 18C26.9453 18 29.3333 19.1933 29.3333 20.6667M29.3333 24C29.3333 25.4733 26.9453 26.6667 24 26.6667C21.0546 26.6667 18.6666 25.4733 18.6666 24" stroke="#409384" stroke-width="2" stroke-linecap="round" stroke-linejoin="round"/>
</svg>
