<svg width="48" height="48" viewBox="0 0 48 48" fill="none" xmlns="http://www.w3.org/2000/svg">
<rect width="48" height="48" rx="24" fill="#DEF7EC"/>
<path d="M24 21.3333V30M24 21.3333V20C24 19.7363 24.0782 19.4785 24.2247 19.2592C24.3712 19.04 24.5795 18.8691 24.8231 18.7682C25.0667 18.6672 25.3348 18.6408 25.5935 18.6923C25.8521 18.7437 26.0897 18.8707 26.2761 19.0572C26.4626 19.2437 26.5896 19.4812 26.641 19.7399C26.6925 19.9985 26.6661 20.2666 26.5652 20.5102C26.4643 20.7539 26.2934 20.9621 26.0741 21.1086C25.8548 21.2551 25.597 21.3333 25.3333 21.3333H24ZM24 21.3333V19.6667C24 19.337 23.9023 19.0148 23.7191 18.7407C23.536 18.4666 23.2757 18.253 22.9711 18.1269C22.6666 18.0007 22.3315 17.9677 22.0082 18.032C21.6849 18.0963 21.3879 18.2551 21.1548 18.4882C20.9217 18.7212 20.763 19.0182 20.6987 19.3415C20.6344 19.6648 20.6674 19.9999 20.7935 20.3045C20.9197 20.609 21.1333 20.8693 21.4074 21.0524C21.6815 21.2356 22.0037 21.3333 22.3333 21.3333H24ZM19.3333 24H28.6667M19.3333 24C18.9797 24 18.6406 23.8595 18.3905 23.6095C18.1405 23.3594 18 23.0203 18 22.6667C18 22.313 18.1405 21.9739 18.3905 21.7239C18.6406 21.4738 18.9797 21.3333 19.3333 21.3333H28.6667C29.0203 21.3333 29.3594 21.4738 29.6095 21.7239C29.8595 21.9739 30 22.313 30 22.6667C30 23.0203 29.8595 23.3594 29.6095 23.6095C29.3594 23.8595 29.0203 24 28.6667 24M19.3333 24V28.6667C19.3333 29.0203 19.4738 29.3594 19.7239 29.6095C19.9739 29.8595 20.313 30 20.6667 30H27.3333C27.687 30 28.0261 29.8595 28.2761 29.6095C28.5262 29.3594 28.6667 29.0203 28.6667 28.6667V24" stroke="#409384" stroke-width="2" stroke-linecap="round" stroke-linejoin="round"/>
</svg>
