<svg width="48" height="48" viewBox="0 0 48 48" fill="none" xmlns="http://www.w3.org/2000/svg">
<rect width="48" height="48" rx="24" fill="#DEF7EC"/>
<path d="M24 21.3333V24L26 26M30 24C30 24.7879 29.8448 25.5681 29.5433 26.2961C29.2417 27.0241 28.7998 27.6855 28.2426 28.2426C27.6855 28.7998 27.0241 29.2417 26.2961 29.5433C25.5681 29.8448 24.7879 30 24 30C23.2121 30 22.4319 29.8448 21.7039 29.5433C20.9759 29.2417 20.3145 28.7998 19.7574 28.2426C19.2002 27.6855 18.7583 27.0241 18.4567 26.2961C18.1552 25.5681 18 24.7879 18 24C18 22.4087 18.6321 20.8826 19.7574 19.7574C20.8826 18.6321 22.4087 18 24 18C25.5913 18 27.1174 18.6321 28.2426 19.7574C29.3679 20.8826 30 22.4087 30 24Z" stroke="#409384" stroke-width="2" stroke-linecap="round" stroke-linejoin="round"/>
</svg>
