<svg width="65" height="64" viewBox="0 0 65 64" fill="none" xmlns="http://www.w3.org/2000/svg">
<circle cx="32.6667" cy="32" r="30.5" stroke="#156A60" stroke-width="3"/>
<path d="M20.1263 35.128H22.0523V37H15.6263V35.128H17.9303V27.532C17.3003 27.874 16.7243 27.982 15.6623 27.982V26.128C17.0303 26.128 17.8583 25.732 18.4343 24.652H20.1263V35.128ZM27.9587 37.108C24.8987 37.108 23.0627 34.894 23.0627 30.826C23.0627 26.758 24.8987 24.508 27.9587 24.508C31.0187 24.508 32.8727 26.758 32.8727 30.826C32.8727 34.894 31.0367 37.108 27.9587 37.108ZM27.9587 35.182C29.6867 35.182 30.6407 33.742 30.6407 30.826C30.6407 27.91 29.6687 26.434 27.9587 26.434C26.2487 26.434 25.2947 27.91 25.2947 30.826C25.2947 33.742 26.2487 35.182 27.9587 35.182ZM45.3425 28.09C47.3045 28.09 48.4025 29.44 48.4025 31.42V37H46.1885V31.906C46.1885 30.664 45.5765 29.98 44.5685 29.98C43.4525 29.98 42.7145 30.772 42.7145 31.996V37H40.5185V31.906C40.5185 30.682 39.9065 29.98 38.8805 29.98C37.7825 29.98 37.0445 30.772 37.0445 31.996V37H34.8485V28.18H36.9545L37.0265 29.458C37.5485 28.648 38.4125 28.09 39.6365 28.09C41.0585 28.09 42.0305 28.81 42.4625 29.908C42.9305 28.864 43.8845 28.09 45.3425 28.09Z" fill="#12574F"/>
</svg>
